<svg width="19" height="19" viewBox="0 0 19 19" fill="none" xmlns="http://www.w3.org/2000/svg">
<path d="M17.7457 0.328049C17.3552 -0.0624745 16.722 -0.062475 16.3315 0.328049L9.03712 7.62242L1.74275 0.328051C1.35223 -0.0624731 0.719062 -0.0624731 0.328538 0.328051C-0.0619863 0.718575 -0.0619867 1.35174 0.328538 1.74226L7.62291 9.03664L0.328559 16.331C-0.0619658 16.7215 -0.0619658 17.3547 0.328559 17.7452C0.719083 18.1357 1.35225 18.1357 1.74277 17.7452L9.03713 10.4509L16.3315 17.7452C16.722 18.1357 17.3552 18.1357 17.7457 17.7452C18.1362 17.3547 18.1362 16.7215 17.7457 16.331L10.4513 9.03664L17.7457 1.74226C18.1362 1.35174 18.1362 0.718574 17.7457 0.328049Z" fill="white"/>
</svg>
