<svg width="23" height="23" viewBox="0 0 23 23" fill="none" xmlns="http://www.w3.org/2000/svg">
<path fill-rule="evenodd" clip-rule="evenodd" d="M17.0776 22.1583C14.9733 21.631 10.6655 20.1447 6.76019 16.2394C2.85486 12.3341 1.36857 8.02626 0.841348 5.92201C0.538364 4.71272 1.08395 3.5458 2.00907 2.885L4.43434 1.15267C5.85338 0.139068 7.82743 0.483016 8.82006 1.9168L10.3469 4.12228C10.9951 5.05847 10.7715 6.34159 9.84494 7.00342L8.62746 7.87304C8.81172 8.57784 9.3848 10.0252 11.1796 11.82C12.9744 13.6148 14.4218 14.1879 15.1266 14.3721L15.9962 13.1547C16.658 12.2281 17.9411 12.0045 18.8773 12.6527L21.0828 14.1795C22.5166 15.1722 22.8605 17.1462 21.8469 18.5653L20.1146 20.9905C19.4538 21.9156 18.2869 22.4612 17.0776 22.1583ZM8.23333 14.7663C11.7848 18.3177 15.704 19.6664 17.5839 20.1374C17.8587 20.2062 18.1909 20.0994 18.4193 19.7796L20.1517 17.3544C20.4895 16.8813 20.3749 16.2233 19.8969 15.8924L17.6915 14.3656L16.7582 15.6721C16.3769 16.206 15.6715 16.6248 14.8503 16.4476C13.8253 16.2265 11.9305 15.5172 9.70646 13.2931C7.48241 11.0691 6.77313 9.1743 6.55197 8.1493C6.37478 7.32805 6.79357 6.62274 7.32751 6.24136L8.63403 5.30814L7.10716 3.10266C6.77628 2.62473 6.11826 2.51008 5.64525 2.84795L3.21999 4.58028C2.90016 4.80873 2.79337 5.14091 2.86222 5.41568C3.33323 7.29563 4.68189 11.2148 8.23333 14.7663Z" fill="#F71315"/>
</svg>
