<svg width="21" height="25" viewBox="0 0 21 25" fill="none" xmlns="http://www.w3.org/2000/svg">
<path fill-rule="evenodd" clip-rule="evenodd" d="M10.5036 14.5872C13.0924 14.5872 15.1911 12.4885 15.1911 9.89966C15.1911 7.31083 13.0924 5.21216 10.5036 5.21216C7.91475 5.21216 5.81608 7.31083 5.81608 9.89966C5.81608 12.4885 7.91475 14.5872 10.5036 14.5872ZM10.5036 12.5076C9.06328 12.5076 7.89568 11.34 7.89568 9.89966C7.89568 8.45936 9.06328 7.29176 10.5036 7.29176C11.9439 7.29176 13.1115 8.45936 13.1115 9.89966C13.1115 11.34 11.9439 12.5076 10.5036 12.5076Z" fill="#F71315"/>
<path fill-rule="evenodd" clip-rule="evenodd" d="M20.1582 12.0645C21.5049 6.02955 16.7552 0.00390625 10.4998 0.00390625C4.24618 0.00390625 -0.503918 6.03782 0.841674 12.0653C1.88029 16.9607 6.08026 21.7154 8.58692 24.1949C9.66046 25.2568 11.3392 25.2568 12.4128 24.1949C14.9196 21.7152 19.1198 16.9602 20.1582 12.0645ZM10.4998 2.08724C15.4086 2.08724 19.184 6.86461 18.1248 11.6108C17.6161 13.8913 16.4747 15.9393 15.1354 17.8325C13.7356 19.8111 12.1487 21.5257 10.9477 22.7137C10.6858 22.9727 10.3138 22.9727 10.052 22.7137C8.85102 21.5257 7.26421 19.8112 5.86451 17.8328C4.52504 15.9395 3.38407 13.892 2.87496 11.6114C1.8169 6.87191 5.59371 2.08724 10.4998 2.08724Z" fill="#F71315"/>
</svg>
