<svg width="136" height="18" viewBox="0 0 136 18" fill="none" xmlns="http://www.w3.org/2000/svg">
<path d="M0 0.00400336C1.21626 0.00400336 2.35881 0.00400336 3.53821 0.00400336C5.08618 0.00400336 5.08618 0.00400327 5.56531 1.49859C6.52358 4.5625 7.48184 7.6264 8.44011 10.6529C8.47696 10.8024 8.55068 10.9519 8.62439 11.176C8.6981 10.9519 8.77182 10.8398 8.80867 10.6903C9.91436 7.32748 11.0569 3.9273 12.1257 0.564474C12.2363 0.153462 12.4206 0.00400336 12.8629 0.00400336C13.9686 0.041368 15.0743 0.041368 16.1799 0.00400336C16.6959 0.00400336 16.9171 0.116097 17.0645 0.639203C18.0596 4.00203 19.1285 7.32748 20.1604 10.6903C20.1973 10.8771 20.271 11.0266 20.3816 11.3255C20.4921 11.064 20.529 10.9145 20.6027 10.765C21.7084 7.36485 22.8141 3.96466 23.8829 0.564474C23.9935 0.190827 24.1778 0.041368 24.5832 0.041368C25.9469 0.0787327 27.3474 0.041368 28.7848 0.041368C26.9051 5.94499 25.0255 11.8112 23.1089 17.6775C21.4135 17.6775 19.755 17.6775 18.0965 17.6401C17.9491 17.6401 17.7279 17.3786 17.6911 17.1918C16.7696 14.2773 15.8482 11.3629 14.9637 8.44842C14.8163 7.96268 14.6688 7.47694 14.4846 6.91647C13.9317 8.59788 13.4157 10.2046 12.8997 11.7739C12.31 13.5674 11.7203 15.3983 11.1306 17.1918C11.0201 17.5654 10.8726 17.6775 10.4672 17.6775C9.02981 17.6401 7.55556 17.6401 6.11816 17.6775C5.78645 17.6775 5.63902 17.6028 5.52846 17.2665C3.68564 11.6244 1.87967 5.98235 0.0737127 0.340286C0.0368564 0.265556 0.0368564 0.190827 0 0.00400336Z" fill="white"/>
<path d="M47.471 0.041368C47.6184 0.041368 47.6921 0.00400336 47.8027 0.00400336C51.1566 0.041368 54.5106 0.00400336 57.8645 0.0787327C59.2282 0.116097 60.5182 0.489744 61.6238 1.34913C63.9089 3.14264 63.7984 6.50546 61.4027 8.1495C61.2921 8.22423 61.1447 8.29896 61.071 8.37369C61.6238 8.70998 62.2136 9.00889 62.6558 9.4199C65.2358 11.7739 64.3881 15.8093 61.1079 17.0049C59.781 17.4907 58.3805 17.6401 56.9799 17.6401C53.9577 17.6775 50.9355 17.6401 47.9133 17.6401C47.8027 17.6401 47.6553 17.6401 47.5079 17.6028C47.471 11.7739 47.471 5.94499 47.471 0.041368ZM52.336 13.941C54.1051 13.941 55.8374 13.941 57.5696 13.941C57.7908 13.941 58.0119 13.8289 58.1962 13.7168C58.7491 13.4553 59.0439 12.9696 59.0808 12.3344C59.1176 11.3629 58.6385 10.6529 57.6065 10.5782C55.8743 10.4661 54.142 10.5408 52.3729 10.5408C52.336 11.6618 52.336 12.8201 52.336 13.941ZM52.3729 3.66574C52.3729 4.74932 52.3729 5.87026 52.3729 6.95384C53.7366 6.95384 55.1003 6.95384 56.4271 6.95384C56.5008 6.95384 56.6114 6.91647 56.6851 6.91647C57.6802 6.76701 58.1962 6.20654 58.2331 5.34715C58.2331 4.4504 57.7171 3.77784 56.6851 3.70311C55.2846 3.62838 53.8472 3.66574 52.3729 3.66574Z" fill="white"/>
<path d="M113.554 0.041368C115.25 0.041368 116.835 0.041368 118.42 0.041368C118.42 5.90762 118.42 11.7365 118.42 17.6401C117.093 17.6401 115.803 17.6401 114.513 17.6028C114.365 17.6028 114.181 17.3412 114.034 17.1918C111.675 14.352 109.353 11.475 106.994 8.63525C106.92 8.52315 106.81 8.44842 106.662 8.2616C106.662 11.4376 106.662 14.5015 106.662 17.6028C105.004 17.6028 103.419 17.6028 101.797 17.6028C101.797 11.7365 101.797 5.90762 101.797 0.00400336C102.866 0.00400336 103.935 0.041368 105.004 0.00400336C105.63 -0.0333613 106.036 0.190827 106.441 0.676568C108.653 3.40419 110.864 6.05708 113.075 8.78471C113.223 8.93416 113.333 9.08362 113.554 9.34517C113.554 6.20654 113.554 3.14264 113.554 0.041368Z" fill="white"/>
<path d="M30.5908 17.6401C30.5908 17.4159 30.5908 17.2291 30.5908 17.0423C30.5908 11.5871 30.5908 6.13181 30.5908 0.676568C30.5908 0.190827 30.7014 0.00400336 31.2173 0.00400336C35.3821 0.041368 39.5469 0.00400336 43.7117 0.00400336C43.8959 0.00400336 44.1171 0.00400336 44.3382 0.00400336C44.3382 1.31177 44.3382 2.50744 44.3382 3.8152C41.3897 3.8152 38.4781 3.8152 35.5295 3.8152C35.5295 4.82405 35.5295 5.79553 35.5295 6.80438C38.1095 6.80438 40.6526 6.80438 43.2325 6.80438C43.2325 8.07478 43.2325 9.27045 43.2325 10.5408C40.6894 10.5408 38.1095 10.5408 35.5295 10.5408C35.5295 11.6244 35.5295 12.6706 35.5295 13.7542C38.5518 13.7542 41.574 13.7542 44.6331 13.7542C44.6331 15.062 44.6331 16.3324 44.6331 17.6028C39.9523 17.6401 35.3084 17.6401 30.5908 17.6401Z" fill="white"/>
<path d="M98.3328 0.0787327C98.3696 0.153462 98.3696 0.190827 98.3696 0.228191C98.3328 3.85257 98.4434 7.51431 98.2591 11.1387C98.0748 14.9499 95.2737 17.6401 91.5144 17.9391C89.9664 18.0511 88.4553 18.0511 86.981 17.5654C84.1431 16.6687 82.5214 14.651 82.0423 11.6992C81.9686 11.2134 81.9317 10.6903 81.9317 10.2046C81.9317 6.95384 81.9317 3.66574 81.8949 0.415015C81.8949 0.340286 81.8949 0.228191 81.9317 0.0787327C83.5534 0.0787327 85.1751 0.0787327 86.8336 0.0787327C86.8336 0.302921 86.8336 0.527109 86.8336 0.751297C86.8336 3.62838 86.7968 6.50546 86.8336 9.38254C86.8336 10.1672 86.9073 10.9892 87.1284 11.7739C87.497 13.1937 88.5658 13.9037 90.1138 13.9037C91.6986 13.9037 92.8043 13.1937 93.1729 11.7739C93.3572 11.0266 93.4678 10.2046 93.4678 9.38254C93.5046 6.54282 93.4678 3.66574 93.4678 0.826026C93.4678 0.601838 93.4678 0.37765 93.4678 0.116097C95.1263 0.0787327 96.7111 0.0787327 98.3328 0.0787327Z" fill="white"/>
<path d="M121.995 17.6401C121.995 11.7739 121.995 5.94499 121.995 0.0787327C126.565 0.0787327 131.098 0.0787327 135.668 0.0787327C135.668 1.34913 135.668 2.58217 135.668 3.85257C132.72 3.85257 129.845 3.85257 126.896 3.85257C126.896 4.86141 126.896 5.83289 126.896 6.84174C129.44 6.84174 132.02 6.84174 134.599 6.84174C134.599 8.11214 134.599 9.30781 134.599 10.5782C132.02 10.5782 129.476 10.5782 126.86 10.5782C126.86 11.6618 126.86 12.708 126.86 13.7916C129.919 13.7916 132.941 13.7916 136 13.7916C136 15.0993 136 16.3324 136 17.6401C131.356 17.6401 126.712 17.6401 121.995 17.6401Z" fill="white"/>
<path d="M80.4575 0.0787327C80.4575 1.3865 80.4575 2.6569 80.4575 3.96466C78.6883 3.96466 76.9192 3.96466 75.1501 3.96466C75.1501 8.56052 75.1501 13.0816 75.1501 17.6401C73.4916 17.6401 71.8699 17.6401 70.1745 17.6401C70.1745 13.119 70.1745 8.56052 70.1745 4.00203C68.3686 4.00203 66.6363 4.00203 64.8304 4.00203C64.8304 2.6569 64.8304 1.3865 64.8304 0.0787327C70.0271 0.0787327 75.2238 0.0787327 80.4575 0.0787327Z" fill="white"/>
</svg>
